<mxfile host="Electron" modified="2023-11-27T22:46:36.958Z" agent="Mozilla/5.0 (Windows NT 10.0; Win64; x64) AppleWebKit/537.36 (KHTML, like Gecko) draw.io/22.1.2 Chrome/114.0.5735.289 Electron/25.9.4 Safari/537.36" etag="-QeuEWeIwzVvS3YFxeGx" version="22.1.2" type="device">
  <diagram id="C5RBs43oDa-KdzZeNtuy" name="Page-1">
    <mxGraphModel dx="1036" dy="1775" grid="1" gridSize="10" guides="1" tooltips="1" connect="1" arrows="1" fold="1" page="1" pageScale="1" pageWidth="827" pageHeight="1169" math="0" shadow="0">
      <root>
        <mxCell id="WIyWlLk6GJQsqaUBKTNV-0" />
        <mxCell id="WIyWlLk6GJQsqaUBKTNV-1" parent="WIyWlLk6GJQsqaUBKTNV-0" />
        <mxCell id="nCH7iPEYS8VlLvM7cmj_-0" value="start&lt;br&gt;" style="ellipse;whiteSpace=wrap;html=1;" parent="WIyWlLk6GJQsqaUBKTNV-1" vertex="1">
          <mxGeometry x="354" y="20" width="120" height="80" as="geometry" />
        </mxCell>
        <mxCell id="nCH7iPEYS8VlLvM7cmj_-9" style="edgeStyle=orthogonalEdgeStyle;rounded=0;orthogonalLoop=1;jettySize=auto;html=1;exitX=0.5;exitY=1;exitDx=0;exitDy=0;" parent="WIyWlLk6GJQsqaUBKTNV-1" source="nCH7iPEYS8VlLvM7cmj_-1" target="nCH7iPEYS8VlLvM7cmj_-8" edge="1">
          <mxGeometry relative="1" as="geometry" />
        </mxCell>
        <mxCell id="nCH7iPEYS8VlLvM7cmj_-1" value="in menu" style="shape=parallelogram;perimeter=parallelogramPerimeter;whiteSpace=wrap;html=1;fixedSize=1;" parent="WIyWlLk6GJQsqaUBKTNV-1" vertex="1">
          <mxGeometry x="354" y="280" width="120" height="60" as="geometry" />
        </mxCell>
        <mxCell id="nCH7iPEYS8VlLvM7cmj_-3" style="edgeStyle=orthogonalEdgeStyle;rounded=0;orthogonalLoop=1;jettySize=auto;html=1;exitX=0.5;exitY=1;exitDx=0;exitDy=0;entryX=0.5;entryY=0;entryDx=0;entryDy=0;" parent="WIyWlLk6GJQsqaUBKTNV-1" source="nCH7iPEYS8VlLvM7cmj_-2" target="nCH7iPEYS8VlLvM7cmj_-1" edge="1">
          <mxGeometry relative="1" as="geometry" />
        </mxCell>
        <mxCell id="nCH7iPEYS8VlLvM7cmj_-2" value="1==1?" style="rhombus;whiteSpace=wrap;html=1;" parent="WIyWlLk6GJQsqaUBKTNV-1" vertex="1">
          <mxGeometry x="374" y="150" width="80" height="80" as="geometry" />
        </mxCell>
        <mxCell id="nCH7iPEYS8VlLvM7cmj_-12" style="edgeStyle=orthogonalEdgeStyle;rounded=0;orthogonalLoop=1;jettySize=auto;html=1;exitX=1;exitY=0.5;exitDx=0;exitDy=0;" parent="WIyWlLk6GJQsqaUBKTNV-1" source="nCH7iPEYS8VlLvM7cmj_-4" edge="1">
          <mxGeometry relative="1" as="geometry">
            <mxPoint x="530" y="510" as="targetPoint" />
          </mxGeometry>
        </mxCell>
        <mxCell id="nCH7iPEYS8VlLvM7cmj_-4" value="choice?" style="rhombus;whiteSpace=wrap;html=1;" parent="WIyWlLk6GJQsqaUBKTNV-1" vertex="1">
          <mxGeometry x="374" y="470" width="80" height="80" as="geometry" />
        </mxCell>
        <mxCell id="nCH7iPEYS8VlLvM7cmj_-10" style="edgeStyle=orthogonalEdgeStyle;rounded=0;orthogonalLoop=1;jettySize=auto;html=1;exitX=0.5;exitY=1;exitDx=0;exitDy=0;entryX=0.5;entryY=0;entryDx=0;entryDy=0;" parent="WIyWlLk6GJQsqaUBKTNV-1" source="nCH7iPEYS8VlLvM7cmj_-8" target="nCH7iPEYS8VlLvM7cmj_-4" edge="1">
          <mxGeometry relative="1" as="geometry" />
        </mxCell>
        <mxCell id="nCH7iPEYS8VlLvM7cmj_-8" value="choice" style="shape=parallelogram;perimeter=parallelogramPerimeter;whiteSpace=wrap;html=1;fixedSize=1;" parent="WIyWlLk6GJQsqaUBKTNV-1" vertex="1">
          <mxGeometry x="353.5" y="380" width="120" height="60" as="geometry" />
        </mxCell>
        <mxCell id="nCH7iPEYS8VlLvM7cmj_-17" style="edgeStyle=orthogonalEdgeStyle;rounded=0;orthogonalLoop=1;jettySize=auto;html=1;exitX=1;exitY=0.5;exitDx=0;exitDy=0;" parent="WIyWlLk6GJQsqaUBKTNV-1" source="nCH7iPEYS8VlLvM7cmj_-13" edge="1">
          <mxGeometry relative="1" as="geometry">
            <mxPoint x="740" y="510" as="targetPoint" />
          </mxGeometry>
        </mxCell>
        <mxCell id="RBfiBHLlu7_D5xMxRju--65" style="edgeStyle=orthogonalEdgeStyle;rounded=0;orthogonalLoop=1;jettySize=auto;html=1;exitX=0.5;exitY=0;exitDx=0;exitDy=0;" edge="1" parent="WIyWlLk6GJQsqaUBKTNV-1" source="nCH7iPEYS8VlLvM7cmj_-13" target="RBfiBHLlu7_D5xMxRju--64">
          <mxGeometry relative="1" as="geometry" />
        </mxCell>
        <mxCell id="nCH7iPEYS8VlLvM7cmj_-13" value="choice == 7?" style="rhombus;whiteSpace=wrap;html=1;" parent="WIyWlLk6GJQsqaUBKTNV-1" vertex="1">
          <mxGeometry x="530" y="470" width="80" height="80" as="geometry" />
        </mxCell>
        <mxCell id="nCH7iPEYS8VlLvM7cmj_-32" style="edgeStyle=orthogonalEdgeStyle;rounded=0;orthogonalLoop=1;jettySize=auto;html=1;exitX=1;exitY=0.5;exitDx=0;exitDy=0;entryX=0;entryY=0.5;entryDx=0;entryDy=0;" parent="WIyWlLk6GJQsqaUBKTNV-1" source="nCH7iPEYS8VlLvM7cmj_-18" target="nCH7iPEYS8VlLvM7cmj_-31" edge="1">
          <mxGeometry relative="1" as="geometry" />
        </mxCell>
        <mxCell id="nCH7iPEYS8VlLvM7cmj_-36" style="edgeStyle=orthogonalEdgeStyle;rounded=0;orthogonalLoop=1;jettySize=auto;html=1;exitX=0.5;exitY=0;exitDx=0;exitDy=0;entryX=0.5;entryY=1;entryDx=0;entryDy=0;" parent="WIyWlLk6GJQsqaUBKTNV-1" source="nCH7iPEYS8VlLvM7cmj_-18" target="nCH7iPEYS8VlLvM7cmj_-35" edge="1">
          <mxGeometry relative="1" as="geometry" />
        </mxCell>
        <mxCell id="nCH7iPEYS8VlLvM7cmj_-18" value="choice==1?" style="rhombus;whiteSpace=wrap;html=1;" parent="WIyWlLk6GJQsqaUBKTNV-1" vertex="1">
          <mxGeometry x="740" y="470" width="80" height="80" as="geometry" />
        </mxCell>
        <mxCell id="nCH7iPEYS8VlLvM7cmj_-38" style="edgeStyle=orthogonalEdgeStyle;rounded=0;orthogonalLoop=1;jettySize=auto;html=1;exitX=1;exitY=0.5;exitDx=0;exitDy=0;" parent="WIyWlLk6GJQsqaUBKTNV-1" source="nCH7iPEYS8VlLvM7cmj_-31" edge="1">
          <mxGeometry relative="1" as="geometry">
            <mxPoint x="1100" y="510" as="targetPoint" />
          </mxGeometry>
        </mxCell>
        <mxCell id="nCH7iPEYS8VlLvM7cmj_-31" value="choice==2?" style="rhombus;whiteSpace=wrap;html=1;" parent="WIyWlLk6GJQsqaUBKTNV-1" vertex="1">
          <mxGeometry x="930" y="470" width="80" height="80" as="geometry" />
        </mxCell>
        <mxCell id="RBfiBHLlu7_D5xMxRju--67" style="edgeStyle=orthogonalEdgeStyle;rounded=0;orthogonalLoop=1;jettySize=auto;html=1;exitX=0.5;exitY=0;exitDx=0;exitDy=0;" edge="1" parent="WIyWlLk6GJQsqaUBKTNV-1" source="nCH7iPEYS8VlLvM7cmj_-34">
          <mxGeometry relative="1" as="geometry">
            <mxPoint x="960" y="-70" as="targetPoint" />
          </mxGeometry>
        </mxCell>
        <mxCell id="nCH7iPEYS8VlLvM7cmj_-34" value="do dai chuoi va noi dung chuoi" style="shape=parallelogram;perimeter=parallelogramPerimeter;whiteSpace=wrap;html=1;fixedSize=1;" parent="WIyWlLk6GJQsqaUBKTNV-1" vertex="1">
          <mxGeometry x="897" y="350" width="120" height="60" as="geometry" />
        </mxCell>
        <mxCell id="RBfiBHLlu7_D5xMxRju--68" style="edgeStyle=orthogonalEdgeStyle;rounded=0;orthogonalLoop=1;jettySize=auto;html=1;exitX=0.5;exitY=0;exitDx=0;exitDy=0;" edge="1" parent="WIyWlLk6GJQsqaUBKTNV-1" source="nCH7iPEYS8VlLvM7cmj_-35">
          <mxGeometry relative="1" as="geometry">
            <mxPoint x="780" y="-70" as="targetPoint" />
          </mxGeometry>
        </mxCell>
        <mxCell id="nCH7iPEYS8VlLvM7cmj_-35" value="nhap vao chuoi" style="shape=parallelogram;perimeter=parallelogramPerimeter;whiteSpace=wrap;html=1;fixedSize=1;" parent="WIyWlLk6GJQsqaUBKTNV-1" vertex="1">
          <mxGeometry x="720" y="360" width="120" height="60" as="geometry" />
        </mxCell>
        <mxCell id="nCH7iPEYS8VlLvM7cmj_-37" style="edgeStyle=orthogonalEdgeStyle;rounded=0;orthogonalLoop=1;jettySize=auto;html=1;exitX=0.5;exitY=0;exitDx=0;exitDy=0;entryX=0.607;entryY=0.99;entryDx=0;entryDy=0;entryPerimeter=0;" parent="WIyWlLk6GJQsqaUBKTNV-1" source="nCH7iPEYS8VlLvM7cmj_-31" target="nCH7iPEYS8VlLvM7cmj_-34" edge="1">
          <mxGeometry relative="1" as="geometry" />
        </mxCell>
        <mxCell id="RBfiBHLlu7_D5xMxRju--3" style="edgeStyle=orthogonalEdgeStyle;rounded=0;orthogonalLoop=1;jettySize=auto;html=1;exitX=0.5;exitY=0;exitDx=0;exitDy=0;entryX=0.5;entryY=1;entryDx=0;entryDy=0;" edge="1" parent="WIyWlLk6GJQsqaUBKTNV-1" source="nCH7iPEYS8VlLvM7cmj_-39" target="RBfiBHLlu7_D5xMxRju--2">
          <mxGeometry relative="1" as="geometry">
            <mxPoint x="1140" y="450" as="targetPoint" />
            <Array as="points" />
          </mxGeometry>
        </mxCell>
        <mxCell id="RBfiBHLlu7_D5xMxRju--12" style="edgeStyle=orthogonalEdgeStyle;rounded=0;orthogonalLoop=1;jettySize=auto;html=1;exitX=1;exitY=0.5;exitDx=0;exitDy=0;" edge="1" parent="WIyWlLk6GJQsqaUBKTNV-1" source="nCH7iPEYS8VlLvM7cmj_-39">
          <mxGeometry relative="1" as="geometry">
            <mxPoint x="1340" y="510" as="targetPoint" />
          </mxGeometry>
        </mxCell>
        <mxCell id="nCH7iPEYS8VlLvM7cmj_-39" value="choice==3?" style="rhombus;whiteSpace=wrap;html=1;" parent="WIyWlLk6GJQsqaUBKTNV-1" vertex="1">
          <mxGeometry x="1100" y="470" width="80" height="80" as="geometry" />
        </mxCell>
        <mxCell id="RBfiBHLlu7_D5xMxRju--0" value="i&amp;gt;0?" style="rhombus;whiteSpace=wrap;html=1;" vertex="1" parent="WIyWlLk6GJQsqaUBKTNV-1">
          <mxGeometry x="1100" y="270" width="80" height="80" as="geometry" />
        </mxCell>
        <mxCell id="RBfiBHLlu7_D5xMxRju--5" style="edgeStyle=orthogonalEdgeStyle;rounded=0;orthogonalLoop=1;jettySize=auto;html=1;exitX=0.5;exitY=0;exitDx=0;exitDy=0;" edge="1" parent="WIyWlLk6GJQsqaUBKTNV-1" source="RBfiBHLlu7_D5xMxRju--2" target="RBfiBHLlu7_D5xMxRju--0">
          <mxGeometry relative="1" as="geometry" />
        </mxCell>
        <mxCell id="RBfiBHLlu7_D5xMxRju--2" value="i = strlen(str)" style="rounded=0;whiteSpace=wrap;html=1;" vertex="1" parent="WIyWlLk6GJQsqaUBKTNV-1">
          <mxGeometry x="1080" y="380" width="120" height="60" as="geometry" />
        </mxCell>
        <mxCell id="RBfiBHLlu7_D5xMxRju--9" style="edgeStyle=orthogonalEdgeStyle;rounded=0;orthogonalLoop=1;jettySize=auto;html=1;exitX=0.5;exitY=0;exitDx=0;exitDy=0;entryX=0.5;entryY=1;entryDx=0;entryDy=0;" edge="1" parent="WIyWlLk6GJQsqaUBKTNV-1" source="RBfiBHLlu7_D5xMxRju--6" target="RBfiBHLlu7_D5xMxRju--8">
          <mxGeometry relative="1" as="geometry" />
        </mxCell>
        <mxCell id="RBfiBHLlu7_D5xMxRju--6" value="in ra" style="shape=parallelogram;perimeter=parallelogramPerimeter;whiteSpace=wrap;html=1;fixedSize=1;" vertex="1" parent="WIyWlLk6GJQsqaUBKTNV-1">
          <mxGeometry x="1090" y="180" width="120" height="60" as="geometry" />
        </mxCell>
        <mxCell id="RBfiBHLlu7_D5xMxRju--7" style="edgeStyle=orthogonalEdgeStyle;rounded=0;orthogonalLoop=1;jettySize=auto;html=1;exitX=0.5;exitY=0;exitDx=0;exitDy=0;entryX=0.423;entryY=1.023;entryDx=0;entryDy=0;entryPerimeter=0;" edge="1" parent="WIyWlLk6GJQsqaUBKTNV-1" source="RBfiBHLlu7_D5xMxRju--0" target="RBfiBHLlu7_D5xMxRju--6">
          <mxGeometry relative="1" as="geometry" />
        </mxCell>
        <mxCell id="RBfiBHLlu7_D5xMxRju--11" style="edgeStyle=orthogonalEdgeStyle;rounded=0;orthogonalLoop=1;jettySize=auto;html=1;exitX=0;exitY=0.5;exitDx=0;exitDy=0;entryX=0;entryY=0.5;entryDx=0;entryDy=0;" edge="1" parent="WIyWlLk6GJQsqaUBKTNV-1" source="RBfiBHLlu7_D5xMxRju--8" target="RBfiBHLlu7_D5xMxRju--0">
          <mxGeometry relative="1" as="geometry" />
        </mxCell>
        <mxCell id="RBfiBHLlu7_D5xMxRju--8" value="i--" style="rounded=0;whiteSpace=wrap;html=1;" vertex="1" parent="WIyWlLk6GJQsqaUBKTNV-1">
          <mxGeometry x="1090" y="80" width="120" height="60" as="geometry" />
        </mxCell>
        <mxCell id="RBfiBHLlu7_D5xMxRju--16" style="edgeStyle=orthogonalEdgeStyle;rounded=0;orthogonalLoop=1;jettySize=auto;html=1;exitX=0.5;exitY=0;exitDx=0;exitDy=0;entryX=0.5;entryY=1;entryDx=0;entryDy=0;" edge="1" parent="WIyWlLk6GJQsqaUBKTNV-1" source="RBfiBHLlu7_D5xMxRju--13">
          <mxGeometry relative="1" as="geometry">
            <mxPoint x="1380" y="440" as="targetPoint" />
          </mxGeometry>
        </mxCell>
        <mxCell id="RBfiBHLlu7_D5xMxRju--28" style="edgeStyle=orthogonalEdgeStyle;rounded=0;orthogonalLoop=1;jettySize=auto;html=1;exitX=1;exitY=0.5;exitDx=0;exitDy=0;" edge="1" parent="WIyWlLk6GJQsqaUBKTNV-1" source="RBfiBHLlu7_D5xMxRju--13">
          <mxGeometry relative="1" as="geometry">
            <mxPoint x="1660" y="510" as="targetPoint" />
          </mxGeometry>
        </mxCell>
        <mxCell id="RBfiBHLlu7_D5xMxRju--13" value="choice==4?" style="rhombus;whiteSpace=wrap;html=1;" vertex="1" parent="WIyWlLk6GJQsqaUBKTNV-1">
          <mxGeometry x="1340" y="470" width="80" height="80" as="geometry" />
        </mxCell>
        <mxCell id="RBfiBHLlu7_D5xMxRju--24" style="edgeStyle=orthogonalEdgeStyle;rounded=0;orthogonalLoop=1;jettySize=auto;html=1;exitX=0.5;exitY=0;exitDx=0;exitDy=0;entryX=0.5;entryY=1;entryDx=0;entryDy=0;" edge="1" parent="WIyWlLk6GJQsqaUBKTNV-1" source="RBfiBHLlu7_D5xMxRju--17" target="RBfiBHLlu7_D5xMxRju--18">
          <mxGeometry relative="1" as="geometry" />
        </mxCell>
        <mxCell id="RBfiBHLlu7_D5xMxRju--26" style="edgeStyle=orthogonalEdgeStyle;rounded=0;orthogonalLoop=1;jettySize=auto;html=1;exitX=1;exitY=0.5;exitDx=0;exitDy=0;" edge="1" parent="WIyWlLk6GJQsqaUBKTNV-1" source="RBfiBHLlu7_D5xMxRju--17">
          <mxGeometry relative="1" as="geometry">
            <mxPoint x="1490" y="400" as="targetPoint" />
          </mxGeometry>
        </mxCell>
        <mxCell id="RBfiBHLlu7_D5xMxRju--17" value="i&amp;lt;strlen(str)?" style="rhombus;whiteSpace=wrap;html=1;" vertex="1" parent="WIyWlLk6GJQsqaUBKTNV-1">
          <mxGeometry x="1340" y="360" width="80" height="80" as="geometry" />
        </mxCell>
        <mxCell id="RBfiBHLlu7_D5xMxRju--21" style="edgeStyle=orthogonalEdgeStyle;rounded=0;orthogonalLoop=1;jettySize=auto;html=1;exitX=0.5;exitY=0;exitDx=0;exitDy=0;entryX=0.5;entryY=1;entryDx=0;entryDy=0;" edge="1" parent="WIyWlLk6GJQsqaUBKTNV-1" source="RBfiBHLlu7_D5xMxRju--18" target="RBfiBHLlu7_D5xMxRju--20">
          <mxGeometry relative="1" as="geometry" />
        </mxCell>
        <mxCell id="RBfiBHLlu7_D5xMxRju--18" value="xet trong khoang chu hoa va chu thuong?" style="rhombus;whiteSpace=wrap;html=1;" vertex="1" parent="WIyWlLk6GJQsqaUBKTNV-1">
          <mxGeometry x="1340" y="250" width="80" height="80" as="geometry" />
        </mxCell>
        <mxCell id="RBfiBHLlu7_D5xMxRju--23" style="edgeStyle=orthogonalEdgeStyle;rounded=0;orthogonalLoop=1;jettySize=auto;html=1;exitX=0.5;exitY=0;exitDx=0;exitDy=0;entryX=0.5;entryY=1;entryDx=0;entryDy=0;" edge="1" parent="WIyWlLk6GJQsqaUBKTNV-1" source="RBfiBHLlu7_D5xMxRju--20" target="RBfiBHLlu7_D5xMxRju--22">
          <mxGeometry relative="1" as="geometry" />
        </mxCell>
        <mxCell id="RBfiBHLlu7_D5xMxRju--20" value="cuont++" style="rounded=0;whiteSpace=wrap;html=1;" vertex="1" parent="WIyWlLk6GJQsqaUBKTNV-1">
          <mxGeometry x="1320" y="150" width="120" height="60" as="geometry" />
        </mxCell>
        <mxCell id="RBfiBHLlu7_D5xMxRju--25" style="edgeStyle=orthogonalEdgeStyle;rounded=0;orthogonalLoop=1;jettySize=auto;html=1;exitX=0;exitY=0.5;exitDx=0;exitDy=0;entryX=0;entryY=0.5;entryDx=0;entryDy=0;" edge="1" parent="WIyWlLk6GJQsqaUBKTNV-1" source="RBfiBHLlu7_D5xMxRju--22" target="RBfiBHLlu7_D5xMxRju--17">
          <mxGeometry relative="1" as="geometry" />
        </mxCell>
        <mxCell id="RBfiBHLlu7_D5xMxRju--22" value="i++" style="rounded=0;whiteSpace=wrap;html=1;" vertex="1" parent="WIyWlLk6GJQsqaUBKTNV-1">
          <mxGeometry x="1320" y="50" width="120" height="60" as="geometry" />
        </mxCell>
        <mxCell id="RBfiBHLlu7_D5xMxRju--69" style="edgeStyle=orthogonalEdgeStyle;rounded=0;orthogonalLoop=1;jettySize=auto;html=1;exitX=0.75;exitY=0;exitDx=0;exitDy=0;" edge="1" parent="WIyWlLk6GJQsqaUBKTNV-1" source="RBfiBHLlu7_D5xMxRju--27">
          <mxGeometry relative="1" as="geometry">
            <mxPoint x="1570" y="-70" as="targetPoint" />
          </mxGeometry>
        </mxCell>
        <mxCell id="RBfiBHLlu7_D5xMxRju--27" value="count" style="shape=parallelogram;perimeter=parallelogramPerimeter;whiteSpace=wrap;html=1;fixedSize=1;" vertex="1" parent="WIyWlLk6GJQsqaUBKTNV-1">
          <mxGeometry x="1480" y="370" width="120" height="60" as="geometry" />
        </mxCell>
        <mxCell id="RBfiBHLlu7_D5xMxRju--49" style="edgeStyle=orthogonalEdgeStyle;rounded=0;orthogonalLoop=1;jettySize=auto;html=1;exitX=0.5;exitY=0;exitDx=0;exitDy=0;entryX=0.5;entryY=1;entryDx=0;entryDy=0;" edge="1" parent="WIyWlLk6GJQsqaUBKTNV-1" source="RBfiBHLlu7_D5xMxRju--29" target="RBfiBHLlu7_D5xMxRju--41">
          <mxGeometry relative="1" as="geometry" />
        </mxCell>
        <mxCell id="RBfiBHLlu7_D5xMxRju--50" style="edgeStyle=orthogonalEdgeStyle;rounded=0;orthogonalLoop=1;jettySize=auto;html=1;exitX=1;exitY=0.5;exitDx=0;exitDy=0;" edge="1" parent="WIyWlLk6GJQsqaUBKTNV-1" source="RBfiBHLlu7_D5xMxRju--29">
          <mxGeometry relative="1" as="geometry">
            <mxPoint x="2010" y="510" as="targetPoint" />
          </mxGeometry>
        </mxCell>
        <mxCell id="RBfiBHLlu7_D5xMxRju--29" value="choice==5?" style="rhombus;whiteSpace=wrap;html=1;" vertex="1" parent="WIyWlLk6GJQsqaUBKTNV-1">
          <mxGeometry x="1660" y="470" width="80" height="80" as="geometry" />
        </mxCell>
        <mxCell id="RBfiBHLlu7_D5xMxRju--39" style="edgeStyle=orthogonalEdgeStyle;rounded=0;orthogonalLoop=1;jettySize=auto;html=1;exitX=0.5;exitY=0;exitDx=0;exitDy=0;entryX=0.5;entryY=1;entryDx=0;entryDy=0;" edge="1" source="RBfiBHLlu7_D5xMxRju--41" target="RBfiBHLlu7_D5xMxRju--43" parent="WIyWlLk6GJQsqaUBKTNV-1">
          <mxGeometry relative="1" as="geometry" />
        </mxCell>
        <mxCell id="RBfiBHLlu7_D5xMxRju--40" style="edgeStyle=orthogonalEdgeStyle;rounded=0;orthogonalLoop=1;jettySize=auto;html=1;exitX=1;exitY=0.5;exitDx=0;exitDy=0;" edge="1" source="RBfiBHLlu7_D5xMxRju--41" parent="WIyWlLk6GJQsqaUBKTNV-1">
          <mxGeometry relative="1" as="geometry">
            <mxPoint x="1810" y="400" as="targetPoint" />
          </mxGeometry>
        </mxCell>
        <mxCell id="RBfiBHLlu7_D5xMxRju--41" value="i&amp;lt;strlen(str)?" style="rhombus;whiteSpace=wrap;html=1;" vertex="1" parent="WIyWlLk6GJQsqaUBKTNV-1">
          <mxGeometry x="1660" y="360" width="80" height="80" as="geometry" />
        </mxCell>
        <mxCell id="RBfiBHLlu7_D5xMxRju--42" style="edgeStyle=orthogonalEdgeStyle;rounded=0;orthogonalLoop=1;jettySize=auto;html=1;exitX=0.5;exitY=0;exitDx=0;exitDy=0;entryX=0.5;entryY=1;entryDx=0;entryDy=0;" edge="1" source="RBfiBHLlu7_D5xMxRju--43" target="RBfiBHLlu7_D5xMxRju--45" parent="WIyWlLk6GJQsqaUBKTNV-1">
          <mxGeometry relative="1" as="geometry" />
        </mxCell>
        <mxCell id="RBfiBHLlu7_D5xMxRju--43" value="xet tu 0 den 9" style="rhombus;whiteSpace=wrap;html=1;" vertex="1" parent="WIyWlLk6GJQsqaUBKTNV-1">
          <mxGeometry x="1660" y="250" width="80" height="80" as="geometry" />
        </mxCell>
        <mxCell id="RBfiBHLlu7_D5xMxRju--44" style="edgeStyle=orthogonalEdgeStyle;rounded=0;orthogonalLoop=1;jettySize=auto;html=1;exitX=0.5;exitY=0;exitDx=0;exitDy=0;entryX=0.5;entryY=1;entryDx=0;entryDy=0;" edge="1" source="RBfiBHLlu7_D5xMxRju--45" target="RBfiBHLlu7_D5xMxRju--47" parent="WIyWlLk6GJQsqaUBKTNV-1">
          <mxGeometry relative="1" as="geometry" />
        </mxCell>
        <mxCell id="RBfiBHLlu7_D5xMxRju--45" value="count++" style="rounded=0;whiteSpace=wrap;html=1;" vertex="1" parent="WIyWlLk6GJQsqaUBKTNV-1">
          <mxGeometry x="1640" y="150" width="120" height="60" as="geometry" />
        </mxCell>
        <mxCell id="RBfiBHLlu7_D5xMxRju--46" style="edgeStyle=orthogonalEdgeStyle;rounded=0;orthogonalLoop=1;jettySize=auto;html=1;exitX=0;exitY=0.5;exitDx=0;exitDy=0;entryX=0;entryY=0.5;entryDx=0;entryDy=0;" edge="1" source="RBfiBHLlu7_D5xMxRju--47" target="RBfiBHLlu7_D5xMxRju--41" parent="WIyWlLk6GJQsqaUBKTNV-1">
          <mxGeometry relative="1" as="geometry" />
        </mxCell>
        <mxCell id="RBfiBHLlu7_D5xMxRju--47" value="i++" style="rounded=0;whiteSpace=wrap;html=1;" vertex="1" parent="WIyWlLk6GJQsqaUBKTNV-1">
          <mxGeometry x="1640" y="50" width="120" height="60" as="geometry" />
        </mxCell>
        <mxCell id="RBfiBHLlu7_D5xMxRju--70" style="edgeStyle=orthogonalEdgeStyle;rounded=0;orthogonalLoop=1;jettySize=auto;html=1;exitX=0.75;exitY=0;exitDx=0;exitDy=0;" edge="1" parent="WIyWlLk6GJQsqaUBKTNV-1" source="RBfiBHLlu7_D5xMxRju--48">
          <mxGeometry relative="1" as="geometry">
            <mxPoint x="1890" y="-70" as="targetPoint" />
          </mxGeometry>
        </mxCell>
        <mxCell id="RBfiBHLlu7_D5xMxRju--48" value="count" style="shape=parallelogram;perimeter=parallelogramPerimeter;whiteSpace=wrap;html=1;fixedSize=1;" vertex="1" parent="WIyWlLk6GJQsqaUBKTNV-1">
          <mxGeometry x="1800" y="370" width="120" height="60" as="geometry" />
        </mxCell>
        <mxCell id="RBfiBHLlu7_D5xMxRju--52" style="edgeStyle=orthogonalEdgeStyle;rounded=0;orthogonalLoop=1;jettySize=auto;html=1;exitX=0.5;exitY=0;exitDx=0;exitDy=0;" edge="1" parent="WIyWlLk6GJQsqaUBKTNV-1" source="RBfiBHLlu7_D5xMxRju--51">
          <mxGeometry relative="1" as="geometry">
            <mxPoint x="2050" y="390" as="targetPoint" />
          </mxGeometry>
        </mxCell>
        <mxCell id="RBfiBHLlu7_D5xMxRju--51" value="choice==6?" style="rhombus;whiteSpace=wrap;html=1;" vertex="1" parent="WIyWlLk6GJQsqaUBKTNV-1">
          <mxGeometry x="2010" y="470" width="80" height="80" as="geometry" />
        </mxCell>
        <mxCell id="RBfiBHLlu7_D5xMxRju--54" style="edgeStyle=orthogonalEdgeStyle;rounded=0;orthogonalLoop=1;jettySize=auto;html=1;exitX=0.5;exitY=0;exitDx=0;exitDy=0;entryX=0.5;entryY=1;entryDx=0;entryDy=0;" edge="1" source="RBfiBHLlu7_D5xMxRju--56" target="RBfiBHLlu7_D5xMxRju--58" parent="WIyWlLk6GJQsqaUBKTNV-1">
          <mxGeometry relative="1" as="geometry" />
        </mxCell>
        <mxCell id="RBfiBHLlu7_D5xMxRju--55" style="edgeStyle=orthogonalEdgeStyle;rounded=0;orthogonalLoop=1;jettySize=auto;html=1;exitX=1;exitY=0.5;exitDx=0;exitDy=0;" edge="1" source="RBfiBHLlu7_D5xMxRju--56" parent="WIyWlLk6GJQsqaUBKTNV-1">
          <mxGeometry relative="1" as="geometry">
            <mxPoint x="2160" y="350" as="targetPoint" />
          </mxGeometry>
        </mxCell>
        <mxCell id="RBfiBHLlu7_D5xMxRju--56" value="i&amp;lt;strlen(str)?" style="rhombus;whiteSpace=wrap;html=1;" vertex="1" parent="WIyWlLk6GJQsqaUBKTNV-1">
          <mxGeometry x="2010" y="310" width="80" height="80" as="geometry" />
        </mxCell>
        <mxCell id="RBfiBHLlu7_D5xMxRju--57" style="edgeStyle=orthogonalEdgeStyle;rounded=0;orthogonalLoop=1;jettySize=auto;html=1;exitX=0.5;exitY=0;exitDx=0;exitDy=0;entryX=0.5;entryY=1;entryDx=0;entryDy=0;" edge="1" source="RBfiBHLlu7_D5xMxRju--58" target="RBfiBHLlu7_D5xMxRju--60" parent="WIyWlLk6GJQsqaUBKTNV-1">
          <mxGeometry relative="1" as="geometry" />
        </mxCell>
        <mxCell id="RBfiBHLlu7_D5xMxRju--58" value="loai hai dieu kien truoc" style="rhombus;whiteSpace=wrap;html=1;" vertex="1" parent="WIyWlLk6GJQsqaUBKTNV-1">
          <mxGeometry x="2010" y="200" width="80" height="80" as="geometry" />
        </mxCell>
        <mxCell id="RBfiBHLlu7_D5xMxRju--59" style="edgeStyle=orthogonalEdgeStyle;rounded=0;orthogonalLoop=1;jettySize=auto;html=1;exitX=0.5;exitY=0;exitDx=0;exitDy=0;entryX=0.5;entryY=1;entryDx=0;entryDy=0;" edge="1" source="RBfiBHLlu7_D5xMxRju--60" target="RBfiBHLlu7_D5xMxRju--62" parent="WIyWlLk6GJQsqaUBKTNV-1">
          <mxGeometry relative="1" as="geometry" />
        </mxCell>
        <mxCell id="RBfiBHLlu7_D5xMxRju--60" value="count++" style="rounded=0;whiteSpace=wrap;html=1;" vertex="1" parent="WIyWlLk6GJQsqaUBKTNV-1">
          <mxGeometry x="1990" y="100" width="120" height="60" as="geometry" />
        </mxCell>
        <mxCell id="RBfiBHLlu7_D5xMxRju--61" style="edgeStyle=orthogonalEdgeStyle;rounded=0;orthogonalLoop=1;jettySize=auto;html=1;exitX=0;exitY=0.5;exitDx=0;exitDy=0;entryX=0;entryY=0.5;entryDx=0;entryDy=0;" edge="1" source="RBfiBHLlu7_D5xMxRju--62" target="RBfiBHLlu7_D5xMxRju--56" parent="WIyWlLk6GJQsqaUBKTNV-1">
          <mxGeometry relative="1" as="geometry" />
        </mxCell>
        <mxCell id="RBfiBHLlu7_D5xMxRju--62" value="i++" style="rounded=0;whiteSpace=wrap;html=1;" vertex="1" parent="WIyWlLk6GJQsqaUBKTNV-1">
          <mxGeometry x="1990" width="120" height="60" as="geometry" />
        </mxCell>
        <mxCell id="RBfiBHLlu7_D5xMxRju--66" style="edgeStyle=orthogonalEdgeStyle;rounded=0;orthogonalLoop=1;jettySize=auto;html=1;exitX=0.5;exitY=0;exitDx=0;exitDy=0;entryX=0.5;entryY=0;entryDx=0;entryDy=0;" edge="1" parent="WIyWlLk6GJQsqaUBKTNV-1" source="RBfiBHLlu7_D5xMxRju--63" target="RBfiBHLlu7_D5xMxRju--64">
          <mxGeometry relative="1" as="geometry">
            <mxPoint x="2210" y="-73.20001220703125" as="targetPoint" />
            <Array as="points">
              <mxPoint x="2210" y="-70" />
              <mxPoint x="570" y="-70" />
            </Array>
          </mxGeometry>
        </mxCell>
        <mxCell id="RBfiBHLlu7_D5xMxRju--63" value="count" style="shape=parallelogram;perimeter=parallelogramPerimeter;whiteSpace=wrap;html=1;fixedSize=1;" vertex="1" parent="WIyWlLk6GJQsqaUBKTNV-1">
          <mxGeometry x="2150" y="320" width="120" height="60" as="geometry" />
        </mxCell>
        <mxCell id="RBfiBHLlu7_D5xMxRju--64" value="end" style="ellipse;whiteSpace=wrap;html=1;" vertex="1" parent="WIyWlLk6GJQsqaUBKTNV-1">
          <mxGeometry x="510" y="20" width="120" height="80" as="geometry" />
        </mxCell>
      </root>
    </mxGraphModel>
  </diagram>
</mxfile>
